<?xml version="1.0" encoding="utf-8"?>
<!-- Generator: Adobe Illustrator 24.1.0, SVG Export Plug-In . SVG Version: 6.00 Build 0)  -->
<svg version="1.1" id="Capa_1" xmlns="http://www.w3.org/2000/svg" xmlns:xlink="http://www.w3.org/1999/xlink" x="0px" y="0px"
	 viewBox="0 0 121 34.9" style="enable-background:new 0 0 121 34.9;" xml:space="preserve">
<style type="text/css">
	.st0{fill:none;}
	.st1{fill:#575756;}
	.st2{fill:#E7343F;}
	.st3{opacity:0.65;fill:#244A9A;}
	.st4{fill:#244A9A;}
	.st5{opacity:0.8;fill:#244A9A;}
	.st6{fill:#FFFFFF;}
</style>
<path class="st0" d="M240.5,165H8.1c-2.6,0-4.8-2.1-4.8-4.8v-146c0-2.6,2.1-4.8,4.8-4.8h232.4c2.6,0,4.8,2.1,4.8,4.8v146
	C245.3,162.9,243.2,165,240.5,165z"/>
<g>
	<g>
		<path class="st1" d="M41.6,8.2H44c1.8,0,3,1.1,3,2.7s-1.2,2.7-3,2.7h-2.4V8.2z M44,12.8c1.2,0,2-0.7,2-1.9c0-1.1-0.8-1.9-2-1.9
			h-1.3v3.8H44z"/>
		<path class="st1" d="M47.8,8.3c0-0.3,0.3-0.6,0.6-0.6S49,7.9,49,8.2c0,0.3-0.3,0.6-0.6,0.6C48,8.8,47.8,8.6,47.8,8.3z M47.9,9.5h1
			v4.2h-1V9.5z"/>
		<path class="st1" d="M52.5,9.5v0.9c-0.1,0-0.2,0-0.2,0c-0.7,0-1.2,0.4-1.2,1.3v2h-1V9.5H51v0.6C51.3,9.7,51.8,9.5,52.5,9.5z"/>
		<path class="st1" d="M57.1,11.9h-3.3c0.1,0.6,0.6,1,1.4,1c0.5,0,0.8-0.1,1.1-0.5l0.5,0.6c-0.4,0.4-1,0.7-1.7,0.7
			c-1.4,0-2.3-0.9-2.3-2.1s0.9-2.1,2.2-2.1c1.2,0,2.1,0.9,2.1,2.2C57.1,11.7,57.1,11.8,57.1,11.9z M53.8,11.3h2.4
			c-0.1-0.6-0.5-1-1.2-1C54.4,10.3,53.9,10.7,53.8,11.3z"/>
		<path class="st1" d="M57.6,11.6c0-1.3,0.9-2.1,2.3-2.1c0.8,0,1.5,0.3,1.8,1l-0.8,0.4c-0.3-0.4-0.6-0.6-1-0.6
			c-0.7,0-1.3,0.5-1.3,1.3c0,0.8,0.6,1.3,1.3,1.3c0.4,0,0.8-0.2,1-0.6l0.8,0.4c-0.3,0.6-1,1-1.8,1C58.6,13.8,57.6,12.9,57.6,11.6z"
			/>
		<path class="st1" d="M62,11.6c0-1.3,0.9-2.1,2.3-2.1c0.8,0,1.5,0.3,1.8,1l-0.8,0.4c-0.3-0.4-0.6-0.6-1-0.6c-0.7,0-1.3,0.5-1.3,1.3
			c0,0.8,0.6,1.3,1.3,1.3c0.4,0,0.8-0.2,1-0.6l0.8,0.4c-0.3,0.6-1,1-1.8,1C63,13.8,62,12.9,62,11.6z"/>
		<path class="st1" d="M66.7,8.3c0-0.3,0.3-0.6,0.6-0.6s0.6,0.2,0.6,0.6c0,0.3-0.3,0.6-0.6,0.6C66.9,8.8,66.7,8.6,66.7,8.3z
			 M66.8,9.5h1v4.2h-1V9.5z"/>
		<path class="st1" d="M68.6,11.6c0-1.3,0.9-2.1,2.2-2.1c1.3,0,2.2,0.9,2.2,2.1s-0.9,2.1-2.2,2.1C69.6,13.8,68.6,12.9,68.6,11.6z
			 M72.1,11.6c0-0.8-0.5-1.3-1.3-1.3c-0.7,0-1.2,0.5-1.2,1.3c0,0.8,0.5,1.3,1.2,1.3C71.6,12.9,72.1,12.4,72.1,11.6z M71.2,7.9h1.2
			L71,9h-0.9L71.2,7.9z"/>
		<path class="st1" d="M78.1,11.3v2.4h-1v-2.3c0-0.7-0.4-1.1-1-1.1c-0.7,0-1.2,0.4-1.2,1.3v2.1h-1V9.5h0.9v0.5
			c0.3-0.4,0.8-0.6,1.4-0.6C77.3,9.5,78.1,10.1,78.1,11.3z"/>
		<path class="st1" d="M85.1,10.9h1v2.2c-0.6,0.5-1.4,0.7-2.2,0.7c-1.7,0-3-1.2-3-2.8c0-1.6,1.3-2.8,3-2.8c0.9,0,1.7,0.3,2.2,0.9
			l-0.6,0.6C85.1,9.2,84.6,9,84,9c-1.2,0-2,0.8-2,1.9c0,1.1,0.8,1.9,2,1.9c0.4,0,0.8-0.1,1.1-0.3V10.9z"/>
		<path class="st1" d="M91.2,11.9h-3.3c0.1,0.6,0.6,1,1.4,1c0.5,0,0.8-0.1,1.1-0.5l0.5,0.6c-0.4,0.4-1,0.7-1.7,0.7
			c-1.4,0-2.3-0.9-2.3-2.1s0.9-2.1,2.2-2.1c1.2,0,2.1,0.9,2.1,2.2C91.2,11.7,91.2,11.8,91.2,11.9z M87.8,11.3h2.4
			c-0.1-0.6-0.5-1-1.2-1C88.4,10.3,87.9,10.7,87.8,11.3z"/>
		<path class="st1" d="M96.1,11.3v2.4h-1v-2.3c0-0.7-0.4-1.1-1-1.1c-0.7,0-1.2,0.4-1.2,1.3v2.1h-1V9.5h0.9v0.5
			c0.3-0.4,0.8-0.6,1.4-0.6C95.4,9.5,96.1,10.1,96.1,11.3z"/>
		<path class="st1" d="M101.2,11.9h-3.3c0.1,0.6,0.6,1,1.4,1c0.5,0,0.8-0.1,1.1-0.5l0.5,0.6c-0.4,0.4-1,0.7-1.7,0.7
			c-1.4,0-2.3-0.9-2.3-2.1s0.9-2.1,2.2-2.1c1.2,0,2.1,0.9,2.1,2.2C101.3,11.7,101.3,11.8,101.2,11.9z M97.9,11.3h2.4
			c-0.1-0.6-0.5-1-1.2-1C98.5,10.3,98,10.7,97.9,11.3z"/>
		<path class="st1" d="M104.5,9.5v0.9c-0.1,0-0.2,0-0.2,0c-0.7,0-1.2,0.4-1.2,1.3v2h-1V9.5h0.9v0.6C103.3,9.7,103.8,9.5,104.5,9.5z"
			/>
		<path class="st1" d="M108.7,11.3v2.5h-0.9v-0.5c-0.2,0.4-0.7,0.6-1.3,0.6c-1,0-1.6-0.5-1.6-1.3c0-0.7,0.5-1.2,1.7-1.2h1.1v-0.1
			c0-0.6-0.3-0.9-1-0.9c-0.5,0-1,0.2-1.3,0.4L105,10c0.4-0.3,1.1-0.5,1.8-0.5C108,9.5,108.7,10.1,108.7,11.3z M107.8,12.4v-0.5h-1
			c-0.7,0-0.9,0.3-0.9,0.6c0,0.4,0.3,0.6,0.8,0.6C107.2,13,107.6,12.8,107.8,12.4z"/>
		<path class="st1" d="M109.9,7.9h1v5.8h-1V7.9z"/>
		<path class="st1" d="M45.6,16.5v5.8h-0.9v-0.5c-0.3,0.4-0.8,0.6-1.4,0.6c-1.2,0-2.1-0.8-2.1-2.1c0-1.3,0.9-2.1,2.1-2.1
			c0.5,0,1,0.2,1.4,0.6v-2.1H45.6z M44.7,20.2c0-0.8-0.5-1.3-1.3-1.3c-0.7,0-1.3,0.5-1.3,1.3c0,0.8,0.5,1.3,1.3,1.3
			C44.1,21.5,44.7,21,44.7,20.2z"/>
		<path class="st1" d="M50.8,20.5h-3.3c0.1,0.6,0.6,1,1.4,1c0.5,0,0.8-0.1,1.1-0.5l0.5,0.6c-0.4,0.4-1,0.7-1.7,0.7
			c-1.4,0-2.3-0.9-2.3-2.1s0.9-2.1,2.2-2.1c1.2,0,2.1,0.9,2.1,2.2C50.8,20.3,50.8,20.4,50.8,20.5z M47.4,19.9h2.4
			c-0.1-0.6-0.5-1-1.2-1C48,18.9,47.5,19.3,47.4,19.9z"/>
		<path class="st1" d="M54.9,17.7H53v-0.9h4.7v0.9h-1.8v4.6h-1V17.7z"/>
		<path class="st1" d="M60.6,18.1V19c-0.1,0-0.2,0-0.2,0c-0.7,0-1.2,0.4-1.2,1.3v2h-1v-4.2h0.9v0.6C59.4,18.3,59.9,18.1,60.6,18.1z"
			/>
		<path class="st1" d="M64.8,19.9v2.5h-0.9v-0.5c-0.2,0.4-0.7,0.6-1.3,0.6c-1,0-1.6-0.5-1.6-1.3c0-0.7,0.5-1.2,1.7-1.2h1.1v-0.1
			c0-0.6-0.3-0.9-1-0.9c-0.5,0-1,0.2-1.3,0.4l-0.4-0.7c0.4-0.3,1.1-0.5,1.8-0.5C64.1,18.1,64.8,18.7,64.8,19.9z M63.8,21v-0.5h-1
			c-0.7,0-0.9,0.3-0.9,0.6c0,0.4,0.3,0.6,0.8,0.6C63.2,21.7,63.7,21.4,63.8,21z"/>
		<path class="st1" d="M70.1,19.9v2.4h-1V20c0-0.7-0.4-1.1-1-1.1c-0.7,0-1.2,0.4-1.2,1.3v2.1h-1v-4.2h0.9v0.5
			c0.3-0.4,0.8-0.6,1.4-0.6C69.4,18.1,70.1,18.7,70.1,19.9z"/>
		<path class="st1" d="M70.8,21.9l0.4-0.7c0.4,0.2,0.9,0.4,1.5,0.4c0.6,0,0.9-0.2,0.9-0.5c0-0.8-2.6,0-2.6-1.7
			c0-0.8,0.7-1.3,1.9-1.3c0.6,0,1.2,0.1,1.6,0.4l-0.4,0.7c-0.4-0.2-0.8-0.3-1.2-0.3c-0.6,0-0.9,0.2-0.9,0.5c0,0.8,2.6,0.1,2.6,1.7
			c0,0.8-0.7,1.3-1.9,1.3C71.8,22.4,71.1,22.2,70.8,21.9z"/>
		<path class="st1" d="M79.6,20.2c0,1.3-0.9,2.1-2.1,2.1c-0.5,0-1-0.2-1.3-0.6v2h-1v-5.7h0.9v0.5c0.3-0.4,0.8-0.6,1.4-0.6
			C78.7,18.1,79.6,18.9,79.6,20.2z M78.6,20.2c0-0.8-0.5-1.3-1.2-1.3c-0.7,0-1.3,0.5-1.3,1.3c0,0.8,0.5,1.3,1.3,1.3
			C78.1,21.5,78.6,21,78.6,20.2z"/>
		<path class="st1" d="M80.1,20.2c0-1.3,0.9-2.1,2.2-2.1c1.3,0,2.2,0.9,2.2,2.1s-0.9,2.1-2.2,2.1C81.1,22.4,80.1,21.5,80.1,20.2z
			 M83.6,20.2c0-0.8-0.5-1.3-1.3-1.3c-0.7,0-1.2,0.5-1.2,1.3c0,0.8,0.5,1.3,1.2,1.3C83.1,21.5,83.6,21,83.6,20.2z"/>
		<path class="st1" d="M87.8,18.1V19c-0.1,0-0.2,0-0.2,0c-0.7,0-1.2,0.4-1.2,1.3v2h-1v-4.2h0.9v0.6C86.6,18.3,87.1,18.1,87.8,18.1z"
			/>
		<path class="st1" d="M91.2,22.1c-0.2,0.2-0.6,0.3-0.9,0.3c-0.9,0-1.4-0.5-1.4-1.4v-2h-0.7v-0.8h0.7v-1h1v1H91V19h-1.1v2
			c0,0.4,0.2,0.6,0.6,0.6c0.2,0,0.4-0.1,0.6-0.2L91.2,22.1z"/>
		<path class="st1" d="M95.7,20.5h-3.3c0.1,0.6,0.6,1,1.4,1c0.5,0,0.8-0.1,1.1-0.5l0.5,0.6c-0.4,0.4-1,0.7-1.7,0.7
			c-1.4,0-2.3-0.9-2.3-2.1s0.9-2.1,2.2-2.1c1.2,0,2.1,0.9,2.1,2.2C95.8,20.3,95.7,20.4,95.7,20.5z M92.4,19.9h2.4
			c-0.1-0.6-0.5-1-1.2-1C93,18.9,92.5,19.3,92.4,19.9z"/>
	</g>
	<g>
		<path class="st1" d="M43.4,29.4l0-1.6l-0.8,1.3h-0.2l-0.8-1.3v1.5h-0.4v-2.3h0.4l0.9,1.6l0.9-1.6h0.4l0,2.3H43.4z"/>
		<path class="st1" d="M44.4,27.1c0-0.1,0.1-0.3,0.3-0.3c0.2,0,0.3,0.1,0.3,0.2c0,0.1-0.1,0.3-0.3,0.3
			C44.6,27.3,44.4,27.2,44.4,27.1z M44.5,27.6h0.4v1.8h-0.4V27.6z"/>
		<path class="st1" d="M47.4,28.4v1h-0.4v-1c0-0.3-0.2-0.5-0.4-0.5c-0.3,0-0.5,0.2-0.5,0.5v0.9h-0.4v-1.8H46v0.2
			c0.1-0.2,0.4-0.3,0.6-0.3C47,27.6,47.4,27.9,47.4,28.4z"/>
		<path class="st1" d="M48,27.1c0-0.1,0.1-0.3,0.3-0.3c0.2,0,0.3,0.1,0.3,0.2c0,0.1-0.1,0.3-0.3,0.3C48.1,27.3,48,27.2,48,27.1z
			 M48,27.6h0.4v1.8H48V27.6z"/>
		<path class="st1" d="M48.9,29.2l0.2-0.3c0.2,0.1,0.4,0.2,0.6,0.2c0.3,0,0.4-0.1,0.4-0.2c0-0.3-1.1,0-1.1-0.7
			c0-0.3,0.3-0.6,0.8-0.6c0.2,0,0.5,0.1,0.7,0.2l-0.2,0.3c-0.2-0.1-0.3-0.1-0.5-0.1c-0.3,0-0.4,0.1-0.4,0.2c0,0.4,1.1,0,1.1,0.7
			c0,0.3-0.3,0.6-0.8,0.6C49.4,29.4,49.1,29.4,48.9,29.2z"/>
		<path class="st1" d="M52,29.3c-0.1,0.1-0.3,0.1-0.4,0.1c-0.4,0-0.6-0.2-0.6-0.6V28h-0.3v-0.3H51v-0.4h0.4v0.4h0.5V28h-0.5v0.9
			c0,0.2,0.1,0.3,0.2,0.3c0.1,0,0.2,0,0.2-0.1L52,29.3z"/>
		<path class="st1" d="M54.1,28.7h-1.4c0.1,0.3,0.3,0.4,0.6,0.4c0.2,0,0.4-0.1,0.5-0.2l0.2,0.3c-0.2,0.2-0.4,0.3-0.7,0.3
			c-0.6,0-1-0.4-1-0.9c0-0.5,0.4-0.9,0.9-0.9c0.5,0,0.9,0.4,0.9,0.9C54.1,28.6,54.1,28.6,54.1,28.7z M52.7,28.4h1
			c0-0.3-0.2-0.4-0.5-0.4C53,27.9,52.8,28.1,52.7,28.4z"/>
		<path class="st1" d="M55.7,27.6V28c0,0-0.1,0-0.1,0c-0.3,0-0.5,0.2-0.5,0.6v0.9h-0.4v-1.8h0.4v0.3C55.2,27.7,55.4,27.6,55.7,27.6z
			"/>
		<path class="st1" d="M56.1,27.1c0-0.1,0.1-0.3,0.3-0.3c0.2,0,0.3,0.1,0.3,0.2c0,0.1-0.1,0.3-0.3,0.3
			C56.2,27.3,56.1,27.2,56.1,27.1z M56.2,27.6h0.4v1.8h-0.4V27.6z"/>
		<path class="st1" d="M57.1,28.5c0-0.5,0.4-0.9,1-0.9c0.6,0,1,0.4,1,0.9s-0.4,0.9-1,0.9C57.5,29.4,57.1,29.1,57.1,28.5z M58.6,28.5
			c0-0.3-0.2-0.6-0.5-0.6c-0.3,0-0.5,0.2-0.5,0.6c0,0.3,0.2,0.6,0.5,0.6C58.4,29.1,58.6,28.9,58.6,28.5z"/>
		<path class="st1" d="M62.4,26.9v2.5H62v-0.2c-0.1,0.2-0.4,0.3-0.6,0.3c-0.5,0-0.9-0.4-0.9-0.9c0-0.6,0.4-0.9,0.9-0.9
			c0.2,0,0.4,0.1,0.6,0.2v-0.9H62.4z M62,28.5c0-0.3-0.2-0.6-0.5-0.6c-0.3,0-0.5,0.2-0.5,0.6c0,0.3,0.2,0.6,0.5,0.6
			C61.7,29.1,62,28.9,62,28.5z"/>
		<path class="st1" d="M64.7,28.7h-1.4c0.1,0.3,0.3,0.4,0.6,0.4c0.2,0,0.4-0.1,0.5-0.2l0.2,0.3c-0.2,0.2-0.4,0.3-0.7,0.3
			c-0.6,0-1-0.4-1-0.9c0-0.5,0.4-0.9,0.9-0.9c0.5,0,0.9,0.4,0.9,0.9C64.7,28.6,64.7,28.6,64.7,28.7z M63.3,28.4h1
			c0-0.3-0.2-0.4-0.5-0.4C63.6,27.9,63.4,28.1,63.3,28.4z"/>
		<path class="st1" d="M66.2,28.2c0-0.7,0.5-1.2,1.3-1.2c0.7,0,1.3,0.5,1.3,1.2s-0.5,1.2-1.3,1.2C66.7,29.5,66.2,28.9,66.2,28.2z
			 M68.3,28.2c0-0.5-0.4-0.8-0.8-0.8c-0.5,0-0.8,0.3-0.8,0.8s0.4,0.8,0.8,0.8C67.9,29.1,68.3,28.7,68.3,28.2z"/>
		<path class="st1" d="M71.2,28.5c0,0.6-0.4,0.9-0.9,0.9c-0.2,0-0.5-0.1-0.6-0.3v0.2h-0.4v-2.5h0.4v0.9c0.1-0.2,0.3-0.2,0.6-0.2
			C70.8,27.6,71.2,28,71.2,28.5z M70.8,28.5c0-0.3-0.2-0.6-0.5-0.6c-0.3,0-0.5,0.2-0.5,0.6c0,0.3,0.2,0.6,0.5,0.6
			C70.5,29.1,70.8,28.9,70.8,28.5z"/>
		<path class="st1" d="M72.7,27.6V28c0,0-0.1,0-0.1,0c-0.3,0-0.5,0.2-0.5,0.6v0.9h-0.4v-1.8h0.4v0.3C72.2,27.7,72.4,27.6,72.7,27.6z
			"/>
		<path class="st1" d="M74.7,28.4v1.1h-0.4v-0.2c-0.1,0.2-0.3,0.2-0.6,0.2c-0.4,0-0.7-0.2-0.7-0.5c0-0.3,0.2-0.5,0.7-0.5h0.5v0
			c0-0.2-0.1-0.4-0.4-0.4c-0.2,0-0.4,0.1-0.5,0.2l-0.2-0.3c0.2-0.1,0.5-0.2,0.8-0.2C74.4,27.6,74.7,27.9,74.7,28.4z M74.3,28.9v-0.2
			h-0.4c-0.3,0-0.4,0.1-0.4,0.2c0,0.2,0.1,0.2,0.3,0.2C74,29.1,74.2,29,74.3,28.9z"/>
		<path class="st1" d="M75.2,29.2l0.2-0.3c0.2,0.1,0.4,0.2,0.6,0.2c0.3,0,0.4-0.1,0.4-0.2c0-0.3-1.1,0-1.1-0.7
			c0-0.3,0.3-0.6,0.8-0.6c0.2,0,0.5,0.1,0.7,0.2l-0.2,0.3c-0.2-0.1-0.3-0.1-0.5-0.1c-0.3,0-0.4,0.1-0.4,0.2c0,0.4,1.1,0,1.1,0.7
			c0,0.3-0.3,0.6-0.8,0.6C75.6,29.4,75.3,29.4,75.2,29.2z"/>
		<path class="st1" d="M80,27.6l-0.8,1.9c-0.2,0.4-0.4,0.5-0.7,0.5c-0.2,0-0.4-0.1-0.5-0.2l0.2-0.3c0.1,0.1,0.2,0.1,0.3,0.1
			c0.1,0,0.2-0.1,0.3-0.2l0-0.1L78,27.6h0.4L79,29l0.6-1.3H80z"/>
		<path class="st1" d="M81.2,29.2l0.2-0.3c0.2,0.2,0.5,0.3,0.8,0.3c0.4,0,0.5-0.1,0.5-0.3c0-0.5-1.4-0.2-1.4-1c0-0.4,0.3-0.7,1-0.7
			c0.3,0,0.6,0.1,0.8,0.2l-0.1,0.3c-0.2-0.1-0.4-0.2-0.7-0.2c-0.4,0-0.5,0.1-0.5,0.3c0,0.5,1.4,0.2,1.4,1c0,0.4-0.3,0.7-1,0.7
			C81.8,29.5,81.4,29.3,81.2,29.2z"/>
		<path class="st1" d="M85.3,28.7h-1.4c0.1,0.3,0.3,0.4,0.6,0.4c0.2,0,0.4-0.1,0.5-0.2l0.2,0.3c-0.2,0.2-0.4,0.3-0.7,0.3
			c-0.6,0-1-0.4-1-0.9c0-0.5,0.4-0.9,0.9-0.9c0.5,0,0.9,0.4,0.9,0.9C85.3,28.6,85.3,28.6,85.3,28.7z M83.9,28.4h1
			c0-0.3-0.2-0.4-0.5-0.4C84.1,27.9,83.9,28.1,83.9,28.4z"/>
		<path class="st1" d="M86.9,27.6V28c0,0-0.1,0-0.1,0c-0.3,0-0.5,0.2-0.5,0.6v0.9h-0.4v-1.8h0.4v0.3C86.4,27.7,86.6,27.6,86.9,27.6z
			"/>
		<path class="st1" d="M89.1,27.6l-0.8,1.8h-0.4l-0.8-1.8h0.4l0.6,1.3l0.6-1.3H89.1z"/>
		<path class="st1" d="M89.4,27.1c0-0.1,0.1-0.3,0.3-0.3c0.2,0,0.3,0.1,0.3,0.2c0,0.1-0.1,0.3-0.3,0.3
			C89.6,27.3,89.4,27.2,89.4,27.1z M89.5,27.6h0.4v1.8h-0.4V27.6z"/>
		<path class="st1" d="M90.4,28.5c0-0.5,0.4-0.9,1-0.9c0.4,0,0.6,0.1,0.8,0.4l-0.3,0.2C91.7,28,91.6,28,91.4,28
			c-0.3,0-0.5,0.2-0.5,0.6c0,0.3,0.2,0.6,0.5,0.6c0.2,0,0.3-0.1,0.4-0.2l0.3,0.2c-0.1,0.3-0.4,0.4-0.8,0.4
			C90.8,29.4,90.4,29.1,90.4,28.5z"/>
		<path class="st1" d="M92.6,27.1c0-0.1,0.1-0.3,0.3-0.3c0.2,0,0.3,0.1,0.3,0.2c0,0.1-0.1,0.3-0.3,0.3
			C92.7,27.3,92.6,27.2,92.6,27.1z M92.7,27.6h0.4v1.8h-0.4V27.6z"/>
		<path class="st1" d="M93.6,28.5c0-0.5,0.4-0.9,1-0.9c0.6,0,1,0.4,1,0.9s-0.4,0.9-1,0.9C94,29.4,93.6,29.1,93.6,28.5z M95.1,28.5
			c0-0.3-0.2-0.6-0.5-0.6c-0.3,0-0.5,0.2-0.5,0.6c0,0.3,0.2,0.6,0.5,0.6C94.9,29.1,95.1,28.9,95.1,28.5z"/>
		<path class="st1" d="M95.8,29.2l0.2-0.3c0.2,0.1,0.4,0.2,0.6,0.2c0.3,0,0.4-0.1,0.4-0.2c0-0.3-1.1,0-1.1-0.7
			c0-0.3,0.3-0.6,0.8-0.6c0.2,0,0.5,0.1,0.7,0.2l-0.2,0.3c-0.2-0.1-0.3-0.1-0.5-0.1c-0.3,0-0.4,0.1-0.4,0.2c0,0.4,1.1,0,1.1,0.7
			c0,0.3-0.3,0.6-0.8,0.6C96.3,29.4,96,29.4,95.8,29.2z"/>
		<path class="st1" d="M101,27.9c0,0.5-0.4,0.8-1,0.8h-0.5v0.7H99v-2.3h1C100.6,27.1,101,27.4,101,27.9z M100.5,27.9
			c0-0.3-0.2-0.5-0.6-0.5h-0.5v0.9h0.5C100.3,28.4,100.5,28.2,100.5,27.9z"/>
		<path class="st1" d="M103.3,27.6v1.8h-0.4v-0.2c-0.1,0.2-0.3,0.3-0.6,0.3c-0.5,0-0.8-0.3-0.8-0.8v-1h0.4v1c0,0.3,0.2,0.5,0.4,0.5
			c0.3,0,0.5-0.2,0.5-0.5v-0.9H103.3z M102.5,27.4h-0.4l0.5-0.5h0.5L102.5,27.4z"/>
		<path class="st1" d="M105.8,28.5c0,0.6-0.4,0.9-0.9,0.9c-0.2,0-0.5-0.1-0.6-0.3v0.2h-0.4v-2.5h0.4v0.9c0.1-0.2,0.3-0.2,0.6-0.2
			C105.5,27.6,105.8,28,105.8,28.5z M105.4,28.5c0-0.3-0.2-0.6-0.5-0.6c-0.3,0-0.5,0.2-0.5,0.6c0,0.3,0.2,0.6,0.5,0.6
			C105.2,29.1,105.4,28.9,105.4,28.5z"/>
		<path class="st1" d="M106.4,26.9h0.4v2.5h-0.4V26.9z"/>
		<path class="st1" d="M107.4,27.1c0-0.1,0.1-0.3,0.3-0.3c0.2,0,0.3,0.1,0.3,0.2c0,0.1-0.1,0.3-0.3,0.3
			C107.5,27.3,107.4,27.2,107.4,27.1z M107.5,27.6h0.4v1.8h-0.4V27.6z"/>
		<path class="st1" d="M108.4,28.5c0-0.5,0.4-0.9,1-0.9c0.4,0,0.6,0.1,0.8,0.4l-0.3,0.2c-0.1-0.2-0.3-0.2-0.4-0.2
			c-0.3,0-0.5,0.2-0.5,0.6c0,0.3,0.2,0.6,0.5,0.6c0.2,0,0.3-0.1,0.4-0.2l0.3,0.2c-0.1,0.3-0.4,0.4-0.8,0.4
			C108.8,29.4,108.4,29.1,108.4,28.5z"/>
		<path class="st1" d="M110.4,28.5c0-0.5,0.4-0.9,1-0.9c0.6,0,1,0.4,1,0.9s-0.4,0.9-1,0.9C110.8,29.4,110.4,29.1,110.4,28.5z
			 M111.9,28.5c0-0.3-0.2-0.6-0.5-0.6c-0.3,0-0.5,0.2-0.5,0.6c0,0.3,0.2,0.6,0.5,0.6C111.7,29.1,111.9,28.9,111.9,28.5z"/>
		<path class="st1" d="M112.7,29.2l0.2-0.3c0.2,0.1,0.4,0.2,0.6,0.2c0.3,0,0.4-0.1,0.4-0.2c0-0.3-1.1,0-1.1-0.7
			c0-0.3,0.3-0.6,0.8-0.6c0.2,0,0.5,0.1,0.7,0.2l-0.2,0.3c-0.2-0.1-0.3-0.1-0.5-0.1c-0.3,0-0.4,0.1-0.4,0.2c0,0.4,1.1,0,1.1,0.7
			c0,0.3-0.3,0.6-0.8,0.6C113.1,29.4,112.8,29.4,112.7,29.2z"/>
	</g>
	<g>
		<path class="st2" d="M34,15.9h-0.4c-0.4,0-0.6-0.3-0.4-0.6l0.4-0.9c0,0,0-0.1,0.1-0.1c0-0.2-0.1-0.4-0.1-0.5
			c0,0.1-0.1,0.2-0.1,0.3l-0.3,0.6c-0.2,0.3-0.3,0.3-0.3-0.1v-2.4c0-0.1,0-0.2,0-0.3c-0.3-0.6-0.6-1.2-0.9-1.7
			c-2,0.5-3.8,1.5-5.4,2.9c0,0,0,0,0,0h0v0c0,0,0,0,0,0.1c-0.9,0.8-1.8,1.8-2.5,2.9l0,0l0,0c-2.5-3.9-6.5-6.2-10.8-6.2
			c-3,0-5.9,1.2-8.2,3.2c0,0,0,0,0,0h0v0c0,0,0,0,0,0.1C4,13.9,3.1,14.9,2.4,16l-0.4,0.6h0.7h20.9h0h0.7h0h9.7
			C34.1,16.3,34,16.1,34,15.9z M4,15.9c-0.4,0-0.4-0.4-0.2-0.6c0,0,0,0,0,0c0.1-0.2,0.4-0.1,0.6,0.2C4.5,15.7,4.4,15.9,4,15.9z
			 M5,15c0,0.4-0.2,0.5-0.4,0.2c-0.2-0.3,0-0.9,0.1-1c0,0,0,0,0,0C4.8,14,5,14.3,5,14.6V15z M17.6,11.4l0.8,0.4
			c0.3,0.2,0.5,0.6,0.3,0.9l-0.1,0.2c-0.2,0.3-0.5,0.3-0.7,0l-0.6-1.1c-0.2-0.3-0.3-0.6-0.3-0.7C16.9,11.1,17.2,11.2,17.6,11.4z
			 M14.8,10.6c0.4,0,1.2,0.6,1,0.9l-0.2,0.3l-0.2,0.3c-0.2,0.3-0.4,0.3-0.6,0l-0.5-1C14.3,10.8,14.5,10.6,14.8,10.6z M14.1,11.9
			c0-0.4,0.1-0.4,0.3-0.1l0.2,0.4l0.2,0.4c0.2,0.4,0.2,0.9,0,1.3l-0.2,0.3l-0.2,0.3c-0.2,0.3-0.3,0.3-0.3-0.1V11.9z M9.1,11.3
			L9.9,11c0.4-0.1,0.5,0.1,0.4,0.4l-0.7,1.4c-0.2,0.3-0.5,0.4-0.6,0l-0.2-0.4c-0.2-0.3-0.3-0.7-0.3-0.7C8.4,11.6,8.7,11.4,9.1,11.3z
			 M6.7,15.9H6.3c-0.4,0-0.7-0.3-0.7-0.7v-0.9c0-0.4,0.2-0.5,0.4-0.1L7,15.3C7.2,15.6,7.1,15.9,6.7,15.9z M7.8,15.1
			c0,0.4-0.2,0.5-0.4,0.1l-1.2-1.5C6,13.5,6,13,6.3,12.8l0.9-0.6c0.3-0.2,0.6,0,0.6,0.3V15.1z M8.4,14.6v-1.4c0-0.4,0.1-0.4,0.3-0.1
			l0,0.1c0.2,0.3,0.2,0.9,0,1.3l0,0.1l0,0.1C8.6,15,8.4,15,8.4,14.6z M9.5,15.9H9.2c-0.4,0-0.6-0.3-0.4-0.6L8.9,15L9,14.8
			c0.2-0.3,0.5-0.4,0.6,0L9.7,15l0.1,0.2C10,15.6,9.9,15.9,9.5,15.9z M10.6,15.1c0,0.4,0,0.7-0.1,0.7c0,0-0.2-0.3-0.4-0.6l-0.4-0.8
			c-0.2-0.3-0.2-0.9,0-1.3l0.5-1.1c0.2-0.3,0.3-0.3,0.3,0.1V15.1z M11.3,14.5v-2.4c0-0.4,0.1-0.4,0.3-0.1l0.3,0.6
			c0.2,0.4,0.2,0.9,0,1.3l-0.3,0.6C11.4,14.9,11.3,14.9,11.3,14.5z M12.7,15.9H12c-0.4,0-0.6-0.3-0.4-0.6l0.4-0.9
			c0.2-0.3,0.5-0.3,0.6,0l0.4,0.9C13.3,15.6,13.1,15.9,12.7,15.9z M13.5,14.6c0,0.4-0.1,0.4-0.3,0.1L12.9,14c-0.2-0.4-0.2-0.9,0-1.3
			l0.3-0.6c0.2-0.3,0.3-0.3,0.3,0.1V14.6z M13.2,11.3l-0.2,0.5l-0.2,0.5c-0.2,0.3-0.5,0.3-0.6,0l-0.5-1c-0.2-0.4-0.3-0.6-0.3-0.6
			c0,0,0.3-0.1,0.7-0.1c0,0,0.5-0.1,1.1-0.1c0.1,0,0.1,0,0.2,0c0,0,0.1,0,0.1,0c0.1,0,0.2,0.1,0.2,0.1C13.5,10.7,13.3,11,13.2,11.3z
			 M15.6,15.9h-0.7c-0.4,0-0.7,0-0.7,0c0,0,0.1-0.3,0.3-0.7l0.2-0.5l0.2-0.5c0.2-0.3,0.4-0.3,0.6,0l0.4,0.8l0.1,0.2
			C16.1,15.6,15.9,15.9,15.6,15.9z M16.3,14.5c0,0.4-0.1,0.4-0.3,0.1l-0.2-0.4l-0.2-0.4c-0.2-0.4-0.2-0.9,0-1.3l0.2-0.3l0.2-0.3
			c0.2-0.3,0.3-0.3,0.3,0.1V14.5z M16.9,14.8v-2.2c0-0.4,0.1-0.4,0.3-0.1l0.1,0.1l0.3,0.6c0.2,0.3,0.2,0.9,0,1.2l-0.1,0.2l-0.1,0.2
			C17.1,15.3,16.9,15.2,16.9,14.8z M18.3,15.9h-0.4c-0.4,0-0.5-0.3-0.3-0.6l0.3-0.4c0.2-0.3,0.5-0.3,0.7,0l0.1,0.2l0.1,0.2
			C18.8,15.6,18.7,15.9,18.3,15.9z M19.2,14.8c0,0.4-0.1,0.4-0.3,0.1l-0.2-0.3c-0.2-0.3-0.2-0.9,0-1.2l0-0.1l0-0.1
			c0.2-0.3,0.4-0.3,0.4,0.1V14.8z M19.8,15v-1.7c0-0.4,0.3-0.5,0.6-0.3l0.7,0.5c0.3,0.3,0.3,0.7,0,1l-0.4,0.4l-0.4,0.4
			C20,15.5,19.8,15.4,19.8,15z M22.4,15.9h-1.6c-0.4,0-0.5-0.2-0.2-0.5l0.3-0.3l0.3-0.3c0.3-0.3,0.7-0.3,1,0
			C22.5,15,22.8,15.9,22.4,15.9z M25.6,15.9c-0.4,0-0.4-0.4-0.2-0.6c0,0,0,0,0,0c0.1-0.2,0.4-0.1,0.6,0.2
			C26.1,15.7,26,15.9,25.6,15.9z M26.6,15c0,0.4-0.2,0.5-0.4,0.2c-0.2-0.3,0-0.9,0.1-1c0,0,0,0,0,0c0.1-0.1,0.3,0.1,0.3,0.5V15z
			 M30.7,11.3l0.9-0.3c0.4-0.1,0.5,0.1,0.4,0.4l-0.3,0.7l-0.3,0.7c-0.2,0.3-0.5,0.4-0.6,0l-0.1-0.2l-0.1-0.2
			c-0.2-0.3-0.3-0.7-0.3-0.7C30,11.6,30.3,11.4,30.7,11.3z M28.3,15.9h-0.4c-0.4,0-0.7-0.3-0.7-0.7v-0.9c0-0.4,0.2-0.5,0.4-0.1
			l0.8,1l0.2,0.2C28.8,15.6,28.7,15.9,28.3,15.9z M29.4,15.1c0,0.4-0.2,0.5-0.4,0.1l-0.6-0.8l-0.6-0.8c-0.2-0.3-0.2-0.8,0.1-1
			l0.9-0.6c0.3-0.2,0.6,0,0.6,0.3V15.1z M30,14.6v-1.4c0-0.4,0.1-0.4,0.3-0.1l0,0.1c0.2,0.3,0.2,0.9,0,1.3l0,0.1l0,0.1
			C30.2,15,30,15,30,14.6z M31.1,15.9h-0.3c-0.4,0-0.6-0.3-0.4-0.6l0.1-0.2l0.1-0.2c0.2-0.3,0.5-0.4,0.6,0l0.1,0.2l0.1,0.2
			C31.6,15.6,31.4,15.9,31.1,15.9z M32.2,15.1c0,0.4,0,0.7-0.1,0.7s-0.2-0.3-0.4-0.6l-0.2-0.4l-0.2-0.4c-0.2-0.3-0.2-0.9,0-1.3
			l0.1-0.1l0.5-0.9c0.2-0.3,0.3-0.3,0.3,0.1V15.1z"/>
		<path class="st3" d="M18.7,2.4c-4.6,0-8.7,2-11.5,5.1c-0.9,1,0.3,1.7,1.7,1.2C10.2,8.3,11.7,8,13.2,8c1,0,1.9,0.1,2.8,0.3
			l-0.8-0.6l1.7,0.5C17,8,17.2,7.9,17.3,7.7c-0.5-0.6-1-0.6-0.8-1.6c0.3,0.9,0.7,0.6,1.4,1.1c0.2-0.1,0.4-0.2,0.6-0.3l-0.2-1.7
			l0.8,1.5c0.2,0,0.4-0.1,0.6-0.1c0.1-0.7-0.2-1.1,0.5-1.7c-0.4,0.9,0.1,0.9,0.2,1.7c0.2,0,0.4,0.1,0.6,0.2l1.1-1.4l-0.5,1.6
			c0.2,0.1,0.3,0.2,0.5,0.4c0.6-0.5,0.6-1,1.6-0.8c-0.9,0.3-0.6,0.7-1.1,1.4c0.1,0.2,0.2,0.4,0.3,0.6l1.7-0.2l-1.5,0.8
			c0,0.2,0.1,0.4,0.1,0.6c0.7,0.1,1.1-0.2,1.7,0.5c-0.9-0.4-0.9,0.1-1.7,0.2c0,0.2-0.1,0.4-0.2,0.6l1.4,1.1l-1.6-0.5
			c0.5,0.5,0.9,1,1.4,1.6l0,0l0,0c0.7-1,1.6-1.9,2.5-2.6c0,0,0,0,0,0v0h0c0,0,0,0,0,0c1-0.8,2.2-1.5,3.4-1.9c0.6-0.2,0.4-1,0.2-1.3
			C27.3,4.4,23.2,2.4,18.7,2.4z"/>
		<path class="st2" d="M29.2,29l-0.7-0.7l-6-6.5c-0.4-0.5-1-1.5-0.4-2.5c0.4-0.6,2.5-0.5,2.5-0.5h9.6v-0.2c0,0-10.5-0.1-14.1,0
			c-0.4,0-0.8,0.1-1.1,0.1c-0.6,0.1-1.2,0.4-1.8,1L8.5,29c2.7,2.5,6.4,4,10.4,4C22.8,33,26.5,31.5,29.2,29z"/>
		<path class="st4" d="M15.4,18.3h-12C3.6,22,5.1,25.4,7.5,28l8.5-8.3C16.5,19.2,16.1,18.3,15.4,18.3z"/>
		<path class="st5" d="M34.1,19.7H23.6c-0.7,0-1,0.8-0.5,1.3l7.1,7C32.3,25.7,33.7,22.9,34.1,19.7z"/>
		<g>
			<path class="st6" d="M20,18.5c-0.6,0.2-0.9,0.7-1.1,1.1h0.3c0.1-0.4,0.4-0.9,1.1-1.1H20z"/>
			<path class="st6" d="M19.1,20c0,0,0-0.1,0-0.2h-0.3c0,0.1-0.1,0.2-0.1,0.2l0,2.6h0.4L19.1,20z"/>
			<polygon class="st6" points="19.2,24.2 18.8,24.2 18.7,25.6 19.3,25.6 			"/>
			<polygon class="st6" points="19.2,22.9 18.8,22.9 18.8,23.7 19.2,23.7 			"/>
			<polygon class="st6" points="18.7,29.4 18.6,33 19.4,33 19.3,29.4 			"/>
			<polygon class="st6" points="19.3,26.3 18.7,26.3 18.7,28.7 19.3,28.7 			"/>
		</g>
	</g>
</g>
</svg>
