<?xml version="1.0" encoding="utf-8"?>
<!-- Generator: Adobe Illustrator 24.1.0, SVG Export Plug-In . SVG Version: 6.00 Build 0)  -->
<svg version="1.1" id="Capa_1" xmlns="http://www.w3.org/2000/svg" xmlns:xlink="http://www.w3.org/1999/xlink" x="0px" y="0px"
	 viewBox="0 0 40.5 41.3" style="enable-background:new 0 0 40.5 41.3;" xml:space="preserve">
<style type="text/css">
	.st0{enable-background:new    ;}
	.st1{fill:#1D1D1B;}
	.st2{fill:#E7343F;}
	.st3{opacity:0.65;fill:#244A9A;enable-background:new    ;}
	.st4{fill:#0056A4;}
	.st5{fill:#244A9A;}
	.st6{opacity:0.8;fill:#244A9A;enable-background:new    ;}
	.st7{fill:#FFFFFF;}
</style>
<g class="st0">
	<path class="st1" d="M3.2,26.9h1.2c0.9,0,1.5,0.5,1.5,1.3c0,0.8-0.6,1.3-1.5,1.3H3.2V26.9z M4.3,29.2c0.6,0,1-0.4,1-0.9
		c0-0.6-0.4-0.9-1-0.9H3.7v1.8H4.3z"/>
	<path class="st1" d="M6.2,26.9c0-0.2,0.1-0.3,0.3-0.3c0.2,0,0.3,0.1,0.3,0.3c0,0.2-0.1,0.3-0.3,0.3C6.3,27.2,6.2,27.1,6.2,26.9z
		 M6.2,27.5h0.5v2H6.2V27.5z"/>
</g>
<g class="st0">
	<path class="st1" d="M8.5,27.5V28c0,0-0.1,0-0.1,0c-0.4,0-0.6,0.2-0.6,0.6v1H7.3v-2h0.5v0.3C7.9,27.6,8.1,27.5,8.5,27.5z"/>
</g>
<g class="st0">
	<path class="st1" d="M10.7,28.7H9.1c0.1,0.3,0.3,0.5,0.7,0.5c0.2,0,0.4-0.1,0.6-0.2l0.3,0.3c-0.2,0.2-0.5,0.3-0.8,0.3
		c-0.7,0-1.1-0.4-1.1-1c0-0.6,0.4-1,1.1-1c0.6,0,1,0.4,1,1.1C10.7,28.6,10.7,28.7,10.7,28.7z M9.1,28.4h1.2c0-0.3-0.3-0.5-0.6-0.5
		C9.4,27.9,9.2,28.1,9.1,28.4z"/>
</g>
<g class="st0">
	<path class="st1" d="M11,28.6c0-0.6,0.5-1,1.1-1c0.4,0,0.7,0.2,0.9,0.5l-0.4,0.2c-0.1-0.2-0.3-0.3-0.5-0.3c-0.4,0-0.6,0.2-0.6,0.6
		c0,0.4,0.3,0.6,0.6,0.6c0.2,0,0.4-0.1,0.5-0.3l0.4,0.2c-0.2,0.3-0.5,0.5-0.9,0.5C11.4,29.6,11,29.2,11,28.6z"/>
</g>
<g class="st0">
	<path class="st1" d="M13.1,28.6c0-0.6,0.5-1,1.1-1c0.4,0,0.7,0.2,0.9,0.5l-0.4,0.2c-0.1-0.2-0.3-0.3-0.5-0.3
		c-0.4,0-0.6,0.2-0.6,0.6c0,0.4,0.3,0.6,0.6,0.6c0.2,0,0.4-0.1,0.5-0.3l0.4,0.2c-0.2,0.3-0.5,0.5-0.9,0.5
		C13.6,29.6,13.1,29.2,13.1,28.6z"/>
	<path class="st1" d="M15.4,26.9c0-0.2,0.1-0.3,0.3-0.3c0.2,0,0.3,0.1,0.3,0.3c0,0.2-0.1,0.3-0.3,0.3C15.5,27.2,15.4,27.1,15.4,26.9
		z M15.4,27.5h0.5v2h-0.5V27.5z"/>
	<path class="st1" d="M16.3,28.6c0-0.6,0.5-1,1.1-1c0.6,0,1.1,0.4,1.1,1c0,0.6-0.5,1-1.1,1C16.7,29.6,16.3,29.2,16.3,28.6z M18,28.6
		c0-0.4-0.3-0.6-0.6-0.6c-0.3,0-0.6,0.2-0.6,0.6s0.3,0.6,0.6,0.6C17.7,29.2,18,28.9,18,28.6z M17.6,26.7h0.6l-0.7,0.5H17L17.6,26.7z
		"/>
	<path class="st1" d="M20.9,28.4v1.2h-0.5v-1.1c0-0.4-0.2-0.5-0.5-0.5c-0.3,0-0.6,0.2-0.6,0.6v1h-0.5v-2h0.5v0.3
		c0.2-0.2,0.4-0.3,0.7-0.3C20.5,27.5,20.9,27.8,20.9,28.4z"/>
	<path class="st1" d="M24.3,28.2h0.5v1.1c-0.3,0.2-0.7,0.3-1,0.3c-0.8,0-1.4-0.6-1.4-1.4c0-0.8,0.6-1.4,1.5-1.4
		c0.4,0,0.8,0.1,1.1,0.4l-0.3,0.3c-0.2-0.2-0.5-0.3-0.7-0.3c-0.6,0-1,0.4-1,0.9c0,0.5,0.4,0.9,1,0.9c0.2,0,0.4,0,0.6-0.1V28.2z"/>
	<path class="st1" d="M27.2,28.7h-1.6c0.1,0.3,0.3,0.5,0.7,0.5c0.2,0,0.4-0.1,0.6-0.2l0.3,0.3c-0.2,0.2-0.5,0.3-0.8,0.3
		c-0.7,0-1.1-0.4-1.1-1c0-0.6,0.4-1,1.1-1c0.6,0,1,0.4,1,1.1C27.2,28.6,27.2,28.7,27.2,28.7z M25.6,28.4h1.2c0-0.3-0.3-0.5-0.6-0.5
		C25.8,27.9,25.6,28.1,25.6,28.4z"/>
</g>
<g class="st0">
	<path class="st1" d="M29.7,28.4v1.2h-0.5v-1.1c0-0.4-0.2-0.5-0.5-0.5c-0.3,0-0.6,0.2-0.6,0.6v1h-0.5v-2h0.5v0.3
		c0.2-0.2,0.4-0.3,0.7-0.3C29.4,27.5,29.7,27.8,29.7,28.4z"/>
</g>
<g class="st0">
	<path class="st1" d="M32.2,28.7h-1.6c0.1,0.3,0.3,0.5,0.7,0.5c0.2,0,0.4-0.1,0.6-0.2l0.3,0.3c-0.2,0.2-0.5,0.3-0.8,0.3
		c-0.7,0-1.1-0.4-1.1-1c0-0.6,0.4-1,1.1-1c0.6,0,1,0.4,1,1.1C32.2,28.6,32.2,28.7,32.2,28.7z M30.6,28.4h1.2c0-0.3-0.3-0.5-0.6-0.5
		C30.9,27.9,30.6,28.1,30.6,28.4z"/>
</g>
<g class="st0">
	<path class="st1" d="M33.8,27.5V28c0,0-0.1,0-0.1,0c-0.4,0-0.6,0.2-0.6,0.6v1h-0.5v-2h0.5v0.3C33.2,27.6,33.5,27.5,33.8,27.5z"/>
</g>
<g class="st0">
	<path class="st1" d="M35.8,28.4v1.2h-0.5v-0.2c-0.1,0.2-0.3,0.3-0.6,0.3c-0.5,0-0.8-0.3-0.8-0.6c0-0.3,0.2-0.6,0.9-0.6h0.5v0
		c0-0.3-0.2-0.4-0.5-0.4c-0.2,0-0.5,0.1-0.6,0.2L34,27.8c0.2-0.2,0.5-0.3,0.9-0.3C35.5,27.5,35.8,27.8,35.8,28.4z M35.4,28.9v-0.2
		h-0.5c-0.3,0-0.4,0.1-0.4,0.3c0,0.2,0.1,0.3,0.4,0.3C35.1,29.3,35.3,29.2,35.4,28.9z"/>
	<path class="st1" d="M36.4,26.7h0.5v2.8h-0.5V26.7z"/>
</g>
<g class="st0">
	<path class="st1" d="M9.4,31v2.8H8.9v-0.3c-0.2,0.2-0.4,0.3-0.7,0.3c-0.6,0-1-0.4-1-1s0.4-1,1-1c0.3,0,0.5,0.1,0.7,0.3v-1H9.4z
		 M8.9,32.8c0-0.4-0.3-0.6-0.6-0.6c-0.3,0-0.6,0.2-0.6,0.6s0.3,0.6,0.6,0.6C8.7,33.4,8.9,33.2,8.9,32.8z"/>
	<path class="st1" d="M11.9,32.9h-1.6c0.1,0.3,0.3,0.5,0.7,0.5c0.2,0,0.4-0.1,0.6-0.2l0.3,0.3c-0.2,0.2-0.5,0.3-0.8,0.3
		c-0.7,0-1.1-0.4-1.1-1c0-0.6,0.4-1,1.1-1c0.6,0,1,0.4,1,1.1C11.9,32.8,11.9,32.9,11.9,32.9z M10.3,32.6h1.2c0-0.3-0.3-0.5-0.6-0.5
		C10.6,32.1,10.3,32.3,10.3,32.6z"/>
</g>
<g class="st0">
	<path class="st1" d="M13.9,31.5H13v-0.4h2.3v0.4h-0.9v2.3h-0.5V31.5z"/>
</g>
<g class="st0">
	<path class="st1" d="M16.7,31.7v0.5c0,0-0.1,0-0.1,0c-0.4,0-0.6,0.2-0.6,0.6v1h-0.5v-2H16v0.3C16.1,31.8,16.3,31.7,16.7,31.7z"/>
</g>
<g class="st0">
	<path class="st1" d="M18.7,32.6v1.2h-0.5v-0.2c-0.1,0.2-0.3,0.3-0.6,0.3c-0.5,0-0.8-0.3-0.8-0.6c0-0.3,0.2-0.6,0.9-0.6h0.5v0
		c0-0.3-0.2-0.4-0.5-0.4c-0.2,0-0.5,0.1-0.6,0.2L16.9,32c0.2-0.2,0.5-0.3,0.9-0.3C18.4,31.7,18.7,32,18.7,32.6z M18.3,33.2v-0.2
		h-0.5c-0.3,0-0.4,0.1-0.4,0.3c0,0.2,0.1,0.3,0.4,0.3C18,33.5,18.2,33.4,18.3,33.2z"/>
	<path class="st1" d="M21.3,32.6v1.2h-0.5v-1.1c0-0.4-0.2-0.5-0.5-0.5c-0.3,0-0.6,0.2-0.6,0.6v1h-0.5v-2h0.5V32
		c0.2-0.2,0.4-0.3,0.7-0.3C20.9,31.7,21.3,32,21.3,32.6z"/>
	<path class="st1" d="M21.6,33.6l0.2-0.4c0.2,0.1,0.5,0.2,0.7,0.2c0.3,0,0.4-0.1,0.4-0.2c0-0.4-1.3,0-1.3-0.8c0-0.4,0.3-0.6,0.9-0.6
		c0.3,0,0.6,0.1,0.8,0.2l-0.2,0.4c-0.2-0.1-0.4-0.2-0.6-0.2c-0.3,0-0.4,0.1-0.4,0.2c0,0.4,1.3,0,1.3,0.8c0,0.4-0.4,0.6-0.9,0.6
		C22.1,33.8,21.8,33.7,21.6,33.6z"/>
	<path class="st1" d="M25.9,32.8c0,0.6-0.4,1-1,1c-0.3,0-0.5-0.1-0.7-0.3v1h-0.5v-2.8h0.5V32c0.2-0.2,0.4-0.3,0.7-0.3
		C25.4,31.7,25.9,32.1,25.9,32.8z M25.4,32.8c0-0.4-0.3-0.6-0.6-0.6s-0.6,0.2-0.6,0.6s0.3,0.6,0.6,0.6S25.4,33.2,25.4,32.8z"/>
	<path class="st1" d="M26.1,32.8c0-0.6,0.5-1,1.1-1c0.6,0,1.1,0.4,1.1,1c0,0.6-0.5,1-1.1,1C26.6,33.8,26.1,33.4,26.1,32.8z
		 M27.8,32.8c0-0.4-0.3-0.6-0.6-0.6c-0.3,0-0.6,0.2-0.6,0.6s0.3,0.6,0.6,0.6C27.5,33.4,27.8,33.2,27.8,32.8z"/>
</g>
<g class="st0">
	<path class="st1" d="M29.9,31.7v0.5c0,0-0.1,0-0.1,0c-0.4,0-0.6,0.2-0.6,0.6v1h-0.5v-2h0.5v0.3C29.4,31.8,29.6,31.7,29.9,31.7z"/>
</g>
<g class="st0">
	<path class="st1" d="M31.6,33.7c-0.1,0.1-0.3,0.1-0.5,0.1c-0.4,0-0.7-0.2-0.7-0.7v-1h-0.3v-0.4h0.3v-0.5h0.5v0.5h0.5v0.4h-0.5v1
		c0,0.2,0.1,0.3,0.3,0.3c0.1,0,0.2,0,0.3-0.1L31.6,33.7z"/>
</g>
<g class="st0">
	<path class="st1" d="M33.8,32.9h-1.6c0.1,0.3,0.3,0.5,0.7,0.5c0.2,0,0.4-0.1,0.6-0.2l0.3,0.3c-0.2,0.2-0.5,0.3-0.8,0.3
		c-0.7,0-1.1-0.4-1.1-1c0-0.6,0.4-1,1.1-1c0.6,0,1,0.4,1,1.1C33.8,32.8,33.8,32.9,33.8,32.9z M32.2,32.6h1.2c0-0.3-0.3-0.5-0.6-0.5
		C32.4,32.1,32.2,32.3,32.2,32.6z"/>
</g>
<g class="st0">
	<path class="st1" d="M3.5,36.7v1.2H3.4v-1l-0.5,0.8H2.8L2.3,37v1H2.2v-1.2h0.1l0.5,0.9l0.5-0.9H3.5z"/>
	<path class="st1" d="M3.9,36.7C3.9,36.7,3.9,36.6,3.9,36.7c0.1-0.1,0.2,0,0.2,0C4.1,36.8,4,36.8,3.9,36.7
		C3.9,36.8,3.9,36.8,3.9,36.7z M3.9,37H4v0.9H3.9V37z"/>
	<path class="st1" d="M5.3,37.4v0.5H5.2v-0.5c0-0.2-0.1-0.3-0.3-0.3c-0.2,0-0.3,0.1-0.3,0.3v0.5H4.4V37h0.1v0.2
		C4.6,37.1,4.7,37,4.9,37C5.1,37,5.3,37.2,5.3,37.4z"/>
	<path class="st1" d="M5.6,36.7C5.6,36.7,5.7,36.6,5.6,36.7c0.1-0.1,0.2,0,0.2,0C5.8,36.8,5.8,36.8,5.6,36.7
		C5.7,36.8,5.6,36.8,5.6,36.7z M5.7,37h0.1v0.9H5.7V37z"/>
	<path class="st1" d="M6.1,37.8L6.1,37.8c0.1,0,0.3,0,0.4,0c0.2,0,0.2-0.1,0.2-0.2c0-0.2-0.6-0.1-0.6-0.4c0-0.2,0.1-0.3,0.4-0.3
		c0.1,0,0.2,0,0.3,0.1l-0.1,0.1c-0.1-0.1-0.2-0.1-0.3-0.1c-0.2,0-0.2,0.1-0.2,0.2c0,0.2,0.6,0.1,0.6,0.4c0,0.2-0.1,0.3-0.4,0.3
		C6.3,38,6.2,37.9,6.1,37.8z"/>
</g>
<g class="st0">
	<path class="st1" d="M7.6,37.9c0,0-0.1,0.1-0.2,0.1c-0.2,0-0.3-0.1-0.3-0.3v-0.6H7V37h0.2v-0.2h0.1V37h0.3v0.1H7.3v0.6
		c0,0.1,0.1,0.2,0.2,0.2C7.5,37.9,7.6,37.8,7.6,37.9L7.6,37.9z"/>
</g>
<g class="st0">
	<path class="st1" d="M8.7,37.5H7.9c0,0.2,0.2,0.3,0.4,0.3c0.1,0,0.2,0,0.3-0.1l0.1,0.1C8.6,37.9,8.4,38,8.3,38
		c-0.3,0-0.5-0.2-0.5-0.5C7.8,37.2,8,37,8.3,37S8.7,37.2,8.7,37.5C8.7,37.5,8.7,37.5,8.7,37.5z M7.9,37.4h0.7c0-0.2-0.1-0.3-0.3-0.3
		C8.1,37.1,7.9,37.3,7.9,37.4z"/>
</g>
<g class="st0">
	<path class="st1" d="M9.5,37v0.1c0,0,0,0,0,0c-0.2,0-0.3,0.1-0.3,0.3v0.5H9V37h0.1v0.2C9.2,37.1,9.3,37,9.5,37z"/>
</g>
<g class="st0">
	<path class="st1" d="M9.7,36.7C9.7,36.7,9.8,36.6,9.7,36.7c0.1-0.1,0.2,0,0.2,0C9.9,36.8,9.9,36.8,9.7,36.7
		C9.8,36.8,9.7,36.8,9.7,36.7z M9.8,37h0.1v0.9H9.8V37z"/>
	<path class="st1" d="M10.2,37.5c0-0.3,0.2-0.5,0.5-0.5c0.3,0,0.5,0.2,0.5,0.5c0,0.3-0.2,0.5-0.5,0.5C10.4,38,10.2,37.8,10.2,37.5z
		 M11,37.5c0-0.2-0.1-0.4-0.3-0.4c-0.2,0-0.3,0.1-0.3,0.4s0.1,0.4,0.3,0.4C10.9,37.8,11,37.7,11,37.5z"/>
	<path class="st1" d="M12.8,36.6v1.3h-0.1v-0.2c-0.1,0.1-0.2,0.2-0.4,0.2c-0.3,0-0.5-0.2-0.5-0.5c0-0.3,0.2-0.5,0.5-0.5
		c0.1,0,0.3,0.1,0.4,0.2v-0.6H12.8z M12.7,37.5c0-0.2-0.1-0.4-0.3-0.4c-0.2,0-0.3,0.1-0.3,0.4s0.1,0.4,0.3,0.4
		C12.5,37.8,12.7,37.7,12.7,37.5z"/>
	<path class="st1" d="M14,37.5h-0.8c0,0.2,0.2,0.3,0.4,0.3c0.1,0,0.2,0,0.3-0.1l0.1,0.1c-0.1,0.1-0.2,0.2-0.4,0.2
		c-0.3,0-0.5-0.2-0.5-0.5c0-0.3,0.2-0.5,0.5-0.5S14,37.2,14,37.5C14,37.5,14,37.5,14,37.5z M13.2,37.4h0.7c0-0.2-0.1-0.3-0.3-0.3
		C13.4,37.1,13.3,37.3,13.2,37.4z"/>
	<path class="st1" d="M14.8,37.3c0-0.4,0.3-0.6,0.6-0.6c0.4,0,0.6,0.3,0.6,0.6S15.8,38,15.4,38C15,38,14.8,37.7,14.8,37.3z
		 M15.9,37.3c0-0.3-0.2-0.5-0.5-0.5c-0.3,0-0.5,0.2-0.5,0.5s0.2,0.5,0.5,0.5C15.7,37.8,15.9,37.6,15.9,37.3z"/>
	<path class="st1" d="M17.3,37.5c0,0.3-0.2,0.5-0.5,0.5c-0.2,0-0.3-0.1-0.4-0.2v0.2h-0.1v-1.3h0.1v0.6c0.1-0.1,0.2-0.2,0.4-0.2
		C17.1,37,17.3,37.2,17.3,37.5z M17.2,37.5c0-0.2-0.1-0.4-0.3-0.4c-0.2,0-0.3,0.1-0.3,0.4s0.1,0.4,0.3,0.4
		C17,37.8,17.2,37.7,17.2,37.5z"/>
</g>
<g class="st0">
	<path class="st1" d="M18.1,37v0.1c0,0,0,0,0,0c-0.2,0-0.3,0.1-0.3,0.3v0.5h-0.1V37h0.1v0.2C17.8,37.1,18,37,18.1,37z"/>
</g>
<g class="st0">
	<path class="st1" d="M19.1,37.4v0.6H19v-0.1c-0.1,0.1-0.2,0.2-0.3,0.2c-0.2,0-0.3-0.1-0.3-0.3c0-0.1,0.1-0.3,0.4-0.3H19v-0.1
		c0-0.2-0.1-0.2-0.3-0.2c-0.1,0-0.2,0-0.3,0.1l-0.1-0.1c0.1-0.1,0.2-0.1,0.4-0.1C19,37,19.1,37.1,19.1,37.4z M19,37.7v-0.2h-0.3
		c-0.2,0-0.2,0.1-0.2,0.2c0,0.1,0.1,0.2,0.2,0.2C18.8,37.9,18.9,37.8,19,37.7z"/>
	<path class="st1" d="M19.4,37.8L19.4,37.8c0.1,0,0.3,0,0.4,0c0.2,0,0.2-0.1,0.2-0.2c0-0.2-0.6-0.1-0.6-0.4c0-0.2,0.1-0.3,0.4-0.3
		c0.1,0,0.2,0,0.3,0.1L20,37.2c-0.1-0.1-0.2-0.1-0.3-0.1c-0.2,0-0.2,0.1-0.2,0.2c0,0.2,0.6,0.1,0.6,0.4c0,0.2-0.1,0.3-0.4,0.3
		C19.6,38,19.5,37.9,19.4,37.8z"/>
	<path class="st1" d="M21.7,37l-0.5,1c-0.1,0.2-0.2,0.2-0.3,0.2c-0.1,0-0.2,0-0.2-0.1l0.1-0.1c0,0,0.1,0.1,0.2,0.1
		c0.1,0,0.1,0,0.2-0.2l0-0.1L20.8,37h0.1l0.3,0.8l0.3-0.8H21.7z"/>
	<path class="st1" d="M22.4,37.8L22.4,37.8c0.1,0,0.3,0,0.5,0c0.2,0,0.3-0.1,0.3-0.2c0-0.3-0.8-0.1-0.8-0.6c0-0.2,0.1-0.3,0.5-0.3
		c0.1,0,0.3,0,0.4,0.1l0,0.1c-0.1-0.1-0.2-0.1-0.3-0.1c-0.2,0-0.3,0.1-0.3,0.2c0,0.3,0.8,0.1,0.8,0.6c0,0.2-0.1,0.3-0.5,0.3
		C22.6,38,22.5,37.9,22.4,37.8z"/>
	<path class="st1" d="M24.4,37.5h-0.8c0,0.2,0.2,0.3,0.4,0.3c0.1,0,0.2,0,0.3-0.1l0.1,0.1C24.3,37.9,24.1,38,24,38
		c-0.3,0-0.5-0.2-0.5-0.5c0-0.3,0.2-0.5,0.5-0.5S24.4,37.2,24.4,37.5C24.4,37.5,24.4,37.5,24.4,37.5z M23.6,37.4h0.7
		c0-0.2-0.1-0.3-0.3-0.3C23.8,37.1,23.6,37.3,23.6,37.4z"/>
</g>
<g class="st0">
	<path class="st1" d="M25.2,37v0.1c0,0,0,0,0,0c-0.2,0-0.3,0.1-0.3,0.3v0.5h-0.1V37h0.1v0.2C24.9,37.1,25,37,25.2,37z"/>
</g>
<g class="st0">
	<path class="st1" d="M26.3,37l-0.4,0.9h-0.1L25.4,37h0.1l0.3,0.8l0.3-0.8H26.3z"/>
	<path class="st1" d="M26.5,36.7C26.5,36.7,26.6,36.6,26.5,36.7c0.1-0.1,0.2,0,0.2,0C26.7,36.8,26.7,36.8,26.5,36.7
		C26.6,36.8,26.5,36.8,26.5,36.7z M26.5,37h0.1v0.9h-0.1V37z"/>
	<path class="st1" d="M27,37.5c0-0.3,0.2-0.5,0.5-0.5c0.2,0,0.3,0.1,0.4,0.2l-0.1,0.1c-0.1-0.1-0.2-0.1-0.3-0.1
		c-0.2,0-0.3,0.1-0.3,0.4c0,0.2,0.1,0.4,0.3,0.4c0.1,0,0.2,0,0.3-0.1l0.1,0.1c-0.1,0.1-0.2,0.2-0.4,0.2C27.2,38,27,37.8,27,37.5z"/>
	<path class="st1" d="M28.1,36.7C28.1,36.7,28.1,36.6,28.1,36.7c0.1-0.1,0.2,0,0.2,0C28.3,36.8,28.2,36.8,28.1,36.7
		C28.1,36.8,28.1,36.8,28.1,36.7z M28.1,37h0.1v0.9h-0.1V37z"/>
	<path class="st1" d="M28.5,37.5c0-0.3,0.2-0.5,0.5-0.5c0.3,0,0.5,0.2,0.5,0.5c0,0.3-0.2,0.5-0.5,0.5C28.7,38,28.5,37.8,28.5,37.5z
		 M29.4,37.5c0-0.2-0.1-0.4-0.3-0.4c-0.2,0-0.3,0.1-0.3,0.4s0.1,0.4,0.3,0.4C29.2,37.8,29.4,37.7,29.4,37.5z"/>
	<path class="st1" d="M29.7,37.8L29.7,37.8c0.1,0,0.3,0,0.4,0c0.2,0,0.2-0.1,0.2-0.2c0-0.2-0.6-0.1-0.6-0.4c0-0.2,0.1-0.3,0.4-0.3
		c0.1,0,0.2,0,0.3,0.1l-0.1,0.1c-0.1-0.1-0.2-0.1-0.3-0.1c-0.2,0-0.2,0.1-0.2,0.2c0,0.2,0.6,0.1,0.6,0.4c0,0.2-0.1,0.3-0.4,0.3
		C29.9,38,29.7,37.9,29.7,37.8z"/>
	<path class="st1" d="M32.2,37.1c0,0.3-0.2,0.4-0.5,0.4h-0.3v0.4h-0.1v-1.2h0.5C32,36.7,32.2,36.9,32.2,37.1z M32.1,37.1
		c0-0.2-0.1-0.3-0.4-0.3h-0.3v0.6h0.3C31.9,37.4,32.1,37.3,32.1,37.1z"/>
	<path class="st1" d="M33.4,37v0.9h-0.1v-0.2c-0.1,0.1-0.2,0.2-0.3,0.2c-0.2,0-0.4-0.1-0.4-0.4V37h0.1v0.5c0,0.2,0.1,0.3,0.3,0.3
		c0.2,0,0.3-0.1,0.3-0.3V37H33.4z M33,36.9h-0.1l0.2-0.2h0.2L33,36.9z"/>
	<path class="st1" d="M34.7,37.5c0,0.3-0.2,0.5-0.5,0.5c-0.2,0-0.3-0.1-0.4-0.2v0.2h-0.1v-1.3h0.1v0.6c0.1-0.1,0.2-0.2,0.4-0.2
		C34.5,37,34.7,37.2,34.7,37.5z M34.6,37.5c0-0.2-0.1-0.4-0.3-0.4c-0.2,0-0.3,0.1-0.3,0.4s0.1,0.4,0.3,0.4
		C34.4,37.8,34.6,37.7,34.6,37.5z"/>
	<path class="st1" d="M35,36.6h0.1v1.3H35V36.6z"/>
	<path class="st1" d="M35.5,36.7C35.5,36.7,35.6,36.6,35.5,36.7c0.1-0.1,0.2,0,0.2,0C35.7,36.8,35.7,36.8,35.5,36.7
		C35.6,36.8,35.5,36.8,35.5,36.7z M35.5,37h0.1v0.9h-0.1V37z"/>
</g>
<g class="st0">
	<path class="st1" d="M36.1,37.5c0-0.3,0.2-0.5,0.5-0.5c0.2,0,0.3,0.1,0.4,0.2l-0.1,0.1c-0.1-0.1-0.2-0.1-0.3-0.1
		c-0.2,0-0.3,0.1-0.3,0.4c0,0.2,0.1,0.4,0.3,0.4c0.1,0,0.2,0,0.3-0.1l0.1,0.1c-0.1,0.1-0.2,0.2-0.4,0.2C36.3,38,36.1,37.8,36.1,37.5
		z"/>
</g>
<g class="st0">
	<path class="st1" d="M37.1,37.5c0-0.3,0.2-0.5,0.5-0.5c0.3,0,0.5,0.2,0.5,0.5c0,0.3-0.2,0.5-0.5,0.5C37.3,38,37.1,37.8,37.1,37.5z
		 M37.9,37.5c0-0.2-0.1-0.4-0.3-0.4c-0.2,0-0.3,0.1-0.3,0.4s0.1,0.4,0.3,0.4C37.8,37.8,37.9,37.7,37.9,37.5z"/>
	<path class="st1" d="M38.2,37.8L38.2,37.8c0.1,0,0.3,0,0.4,0c0.2,0,0.2-0.1,0.2-0.2c0-0.2-0.6-0.1-0.6-0.4c0-0.2,0.1-0.3,0.4-0.3
		c0.1,0,0.2,0,0.3,0.1l-0.1,0.1c-0.1-0.1-0.2-0.1-0.3-0.1c-0.2,0-0.2,0.1-0.2,0.2c0,0.2,0.6,0.1,0.6,0.4c0,0.2-0.1,0.3-0.4,0.3
		C38.4,38,38.3,37.9,38.2,37.8z"/>
</g>
<path class="st2" d="M31.7,10.9h-0.3c-0.2,0-0.3-0.1-0.3-0.3c0-0.1,0-0.2,0.1-0.2l0.3-0.6V9.7c0-0.1-0.1-0.3-0.1-0.4l-0.1,0.2
	L31.1,10c-0.1,0.3-0.2,0.2-0.2-0.1V8.2c0-0.1,0-0.1,0-0.2c-0.2-0.4-0.4-0.8-0.6-1.3c-1.5,0.4-2.9,1.1-4,2.1l0,0l0,0
	c-0.7,0.6-1.3,1.4-1.8,2.2l0,0c-1.7-2.8-4.7-4.5-8-4.5c-2.2,0-4.4,0.9-6,2.4l0,0l0,0C9.7,9.5,9.1,10.2,8.5,11l-0.3,0.4h23.5
	C31.8,11.3,31.8,11.1,31.7,10.9z M9.7,10.9c-0.3,0-0.3-0.3-0.2-0.4l0,0c0.1-0.1,0.3-0.1,0.4,0.1S10,10.9,9.7,10.9z M10.4,10.3
	c0,0.3-0.1,0.4-0.3,0.2c-0.1-0.2-0.1-0.5,0.1-0.7l0,0c0.1-0.1,0.2,0,0.2,0.3L10.4,10.3z M19.7,7.6l0.6,0.3c0.2,0.1,0.3,0.4,0.2,0.7
	c0,0,0,0,0,0l-0.1,0.2C20.2,9,20,9,19.8,8.7l-0.4-0.8c-0.1-0.3-0.2-0.5-0.2-0.5L19.7,7.6z M17.7,7.1c0.3,0,0.9,0.4,0.8,0.7L18.3,8
	l-0.1,0.2c-0.1,0.3-0.3,0.3-0.5,0l-0.3-0.7C17.3,7.2,17.4,7,17.7,7.1L17.7,7.1z M17.1,8c0-0.3,0.1-0.3,0.2,0l0.1,0.3l0.1,0.3
	c0.1,0.3,0.1,0.6,0,0.9l-0.1,0.2l-0.1,0.2c-0.1,0.3-0.2,0.2-0.2-0.1L17.1,8z M13.5,7.5l0.6-0.2c0.3-0.1,0.4,0.1,0.3,0.3l-0.5,1
	c-0.1,0.3-0.3,0.3-0.5,0l-0.2-0.3C13.1,8.2,13,8,13,7.8C13,7.8,13.2,7.7,13.5,7.5L13.5,7.5z M11.7,10.9h-0.3c-0.3,0-0.5-0.2-0.5-0.5
	c0,0,0,0,0,0V9.7c0-0.3,0.1-0.3,0.3-0.1l0.7,0.9C12,10.7,12,10.9,11.7,10.9L11.7,10.9z M12.5,10.4c0,0.3-0.1,0.3-0.3,0.1l-0.9-1.1
	c-0.2-0.2-0.1-0.6,0.1-0.7c0,0,0,0,0,0l0.6-0.4c0.3-0.1,0.4,0,0.4,0.3V10.4z M13,10V9c0-0.3,0.1-0.3,0.2-0.1V9
	c0.1,0.3,0.1,0.6,0,0.9V10V10C13,10.3,13,10.3,13,10L13,10z M13.7,10.9h-0.2c-0.2,0-0.3-0.1-0.4-0.2c0-0.1,0-0.2,0.1-0.2l0.1-0.1
	l0.1-0.1c0.1-0.3,0.3-0.3,0.5,0l0.1,0.1l0.1,0.1C14.1,10.7,14,10.9,13.7,10.9L13.7,10.9z M14.6,10.4c0,0.2,0,0.3,0,0.5
	c-0.1-0.1-0.2-0.3-0.3-0.5L14,9.9c-0.1-0.3-0.1-0.6,0-0.9l0.4-0.8c0.1-0.3,0.2-0.2,0.2,0.1L14.6,10.4z M15.1,9.9V8.2
	c0-0.3,0.1-0.3,0.2,0l0.2,0.5c0.1,0.3,0.1,0.6,0,0.9L15.3,10C15.1,10.2,15,10.2,15.1,9.9L15.1,9.9z M16.1,10.9h-0.5
	c-0.2,0-0.3-0.1-0.3-0.3c0-0.1,0-0.2,0.1-0.2l0.3-0.6c0.1-0.3,0.3-0.3,0.4,0l0.3,0.6c0.1,0.1,0,0.3-0.1,0.4
	C16.2,10.9,16.1,10.9,16.1,10.9L16.1,10.9z M16.6,9.9c0,0.3-0.1,0.3-0.2,0.1l-0.2-0.5c-0.1-0.3-0.1-0.6,0-0.9l0.2-0.5
	c0.1-0.2,0.2-0.2,0.2,0.1V9.9z M16.4,7.6l-0.2,0.4l-0.2,0.4c-0.1,0.3-0.3,0.3-0.5,0l-0.4-0.7L15,7.1L15.5,7c0.3,0,0.5-0.1,0.8-0.1
	h0.2c0.1,0,0.1,0,0.1,0.1C16.6,7.2,16.5,7.4,16.4,7.6L16.4,7.6z M18.2,10.9h-1.1l0.2-0.5l0.2-0.4l0.2-0.4c0.1-0.3,0.3-0.3,0.5,0
	l0.3,0.6l0.1,0.1c0.1,0.1,0.1,0.3-0.1,0.4C18.3,10.9,18.3,10.9,18.2,10.9L18.2,10.9z M18.7,9.9c0,0.3-0.1,0.3-0.2,0.1l-0.1-0.2
	l-0.1-0.3c-0.1-0.3-0.1-0.7,0-1l0.1-0.2L18.5,8c0.1-0.3,0.2-0.2,0.2,0L18.7,9.9z M19.2,10.1V8.5c0-0.3,0.1-0.3,0.2-0.1l0,0.1L19.7,9
	c0.1,0.3,0.1,0.6,0,0.9l-0.1,0.2l-0.1,0.2C19.3,10.5,19.2,10.4,19.2,10.1L19.2,10.1z M20.2,10.9h-0.3c-0.3,0-0.4-0.2-0.3-0.4
	l0.2-0.3c0.1-0.2,0.4-0.2,0.5,0l0.1,0.1l0.1,0.1C20.6,10.7,20.5,10.9,20.2,10.9L20.2,10.9z M20.8,10.1c0,0.3-0.1,0.3-0.2,0.1
	l-0.1-0.3c-0.1-0.3-0.1-0.6,0-0.9V8.9V8.8c0.1-0.3,0.3-0.2,0.3,0.1L20.8,10.1z M21.3,10.2V9c0-0.3,0.2-0.4,0.4-0.2l0.5,0.4
	c0.2,0.2,0.2,0.5,0,0.7c0,0,0,0,0,0l-0.3,0.3l-0.3,0.3C21.5,10.6,21.3,10.6,21.3,10.2L21.3,10.2z M23.2,10.9H22
	c-0.3,0-0.4-0.2-0.1-0.4l0.3-0.2l0.2-0.2c0.2-0.2,0.5-0.2,0.7,0c0,0,0,0,0,0C23.3,10.3,23.5,10.9,23.2,10.9L23.2,10.9z M25.6,10.9
	c-0.3,0-0.3-0.3-0.2-0.4l0,0c0.1-0.1,0.3-0.1,0.4,0.1S25.8,10.9,25.6,10.9L25.6,10.9z M26.3,10.2c0,0.3-0.1,0.4-0.3,0.2
	s0-0.6,0.1-0.8l0,0c0.1-0.1,0.2,0,0.2,0.3L26.3,10.2z M29.3,7.5L30,7.3c0.3-0.1,0.4,0.1,0.3,0.3L30,8.2l-0.3,0.6
	c-0.1,0.3-0.3,0.3-0.5,0l-0.1-0.2L29,8.4c-0.1-0.2-0.2-0.4-0.2-0.5C28.8,7.9,29,7.7,29.3,7.5L29.3,7.5z M27.5,10.9h-0.3
	c-0.3,0-0.5-0.2-0.5-0.5v0V9.7c0-0.3,0.1-0.3,0.3-0.1l0.6,0.8l0.1,0.1C27.9,10.7,27.8,10.9,27.5,10.9L27.5,10.9z M28.3,10.3
	c0,0.3-0.1,0.3-0.3,0.1l-0.4-0.6l-0.4-0.6C27,9.1,27,8.8,27.2,8.6c0,0,0,0,0,0l0.6-0.4c0.3-0.1,0.5,0,0.5,0.3V10.3z M28.8,9.9v-1
	c0-0.3,0.1-0.3,0.2-0.1v0.1c0.1,0.3,0.1,0.6,0,0.9v0.1V10C28.9,10.3,28.8,10.3,28.8,9.9L28.8,9.9z M29.5,10.9h-0.2
	c-0.2,0-0.3-0.1-0.3-0.3c0-0.1,0-0.2,0.1-0.2l0.1-0.1l0.1-0.1c0.1-0.3,0.3-0.3,0.5,0l0.1,0.1l0.1,0.1C30,10.7,29.9,10.9,29.5,10.9
	L29.5,10.9z M30.4,10.4c0,0.2,0,0.3,0,0.5c-0.1-0.1-0.2-0.3-0.3-0.5L30,10.2l-0.1-0.3c-0.1-0.3-0.1-0.6,0-0.9V8.9l0.4-0.7
	c0.1-0.3,0.2-0.2,0.2,0.1L30.4,10.4z"/>
<path class="st3" d="M20.5,1c-3.2,0-6.3,1.4-8.4,3.8c-0.7,0.8,0.2,1.2,1.2,0.9c1.7-0.6,3.5-0.7,5.3-0.3L18,4.9l1.2,0.4
	c0.1-0.1,0.2-0.2,0.3-0.4c-0.3-0.4-0.7-0.5-0.6-1.2c0.2,0.7,0.5,0.4,1,0.8c0.1-0.1,0.3-0.2,0.4-0.2l-0.1-1.3l0.6,1.1
	c0.2,0,0.3,0,0.5,0C21.3,3.6,21,3.4,21.6,3c-0.3,0.6,0,0.7,0.1,1.3c0.2,0,0.3,0.1,0.5,0.1l0.8-1l-0.4,1.2c0.1,0.1,0.3,0.2,0.4,0.3
	c0.4-0.3,0.5-0.7,1.1-0.6c-0.7,0.2-0.4,0.5-0.8,1c0.1,0.1,0.2,0.3,0.2,0.4l1.3-0.2l-1.1,0.6c0,0.2,0.1,0.3,0.1,0.5
	C24.3,6.7,24.6,6.5,25,7c-0.6-0.3-0.7,0-1.3,0.2c0,0.2-0.1,0.3-0.1,0.5l1,0.8l-1.2-0.4c0.4,0.4,0.7,0.8,1,1.2l0,0
	c0.5-0.7,1.1-1.4,1.8-1.9l0,0l0,0c0.8-0.6,1.6-1.1,2.5-1.4c0.4-0.2,0.3-0.7,0.1-1C26.7,2.4,23.7,1,20.5,1z"/>
<path class="st2" d="M28.2,20.6l-0.5-0.5l-4.4-4.8c-0.5-0.5-0.6-1.2-0.3-1.8c0.3-0.5,1.8-0.4,1.8-0.4h7v-0.2c0,0-7.8-0.1-10.3,0
	c-0.3,0-0.5,0-0.8,0.1c-0.5,0.1-1,0.3-1.3,0.7L13,20.6C17.3,24.6,23.9,24.6,28.2,20.6L28.2,20.6z"/>
<path class="st4" d="M21.6,12.9c-0.4,0.1-0.8,0.4-0.9,0.8h0.2C21,13.4,21.3,13.1,21.6,12.9c0.5-0.1,0.9-0.1,1.3-0.1l0,0
	C22.5,12.8,22.1,12.9,21.6,12.9z"/>
<polygon class="st4" points="20.5,20.9 20.5,23.6 21,23.6 21,20.9 "/>
<polygon class="st4" points="20.5,18.6 20.5,20.4 21,20.4 20.9,18.6 "/>
<polygon class="st4" points="20.6,17.1 20.6,18.2 20.9,18.2 20.9,17.1 "/>
<path class="st4" d="M20.9,15.9v-1.9v-0.2h-0.2c0,0.1,0,0.2,0,0.2v1.9H20.9z"/>
<polygon class="st4" points="20.6,16.2 20.6,16.8 20.9,16.8 20.9,16.2 "/>
<path class="st5" d="M18,12.7H9.3c0.1,2.7,1.2,5.2,3,7.2l6.2-6.1c0.2-0.2,0.2-0.6,0-0.9C18.4,12.8,18.2,12.7,18,12.7z"/>
<path class="st6" d="M31.8,13.7h-7.7c-0.3,0-0.6,0.2-0.6,0.5c0,0.2,0.1,0.4,0.2,0.5l5.2,5.1C30.5,18.2,31.5,16,31.8,13.7z"/>
<path class="st7" d="M23,12.7L23,12.7c-0.4,0-0.8,0.1-1.2,0.2c-0.4,0.1-0.7,0.4-0.8,0.8h-0.2c0.1-0.4,0.5-0.8,0.9-0.9
	C22.1,12.7,22.5,12.7,23,12.7z M20.5,21l0,2.7H21V21H20.5z M20.5,18.6v1.8H21v-1.8H20.5z M20.5,17.1v1.1h0.4v-1.1H20.5z M20.8,15.9
	V14c0-0.1,0-0.1,0-0.2h-0.2c0,0.1,0,0.1,0,0.2v1.9H20.8z M20.5,16.1v0.6h0.3v-0.6L20.5,16.1z"/>
</svg>
